<svg xmlns="http://www.w3.org/2000/svg"><symbol id="icon-editor-contrast" viewBox="-35.422 -7.96 31.92 31.92"><path d="M-19.462-3.96c6.595 0 11.96 5.365 11.96 11.96s-5.365 11.96-11.96 11.96-11.96-5.365-11.96-11.96 5.365-11.96 11.96-11.96m0-4c-8.814 0-15.96 7.145-15.96 15.96 0 8.813 7.146 15.96 15.96 15.96S-3.502 16.813-3.502 8c0-8.815-7.146-15.96-15.96-15.96z"/><path d="M-19.462 16.331a8.519 8.519 0 0 0 8.52-8.52 8.518 8.518 0 0 0-8.52-8.519"/></symbol><symbol id="icon-editor-brightness" viewBox="0 0 374.073 374.073"><path d="M187.037 72.62c-63.2 0-114.416 51.226-114.416 114.416s51.226 114.416 114.416 114.416 114.416-51.226 114.416-114.416S250.227 72.62 187.037 72.62zm0 207.935V93.518c51.65 0 93.518 41.87 93.518 93.518s-41.87 93.52-93.518 93.52zm91.95-185.47a10.45 10.45 0 0 0 7.314 3.135 10.45 10.45 0 0 0 7.314-3.135l25.6-25.6a10.45 10.45 0 0 0-12.539-16.719 10.45 10.45 0 0 0-2.09 2.09l-25.6 25.6a9.93 9.93 0 0 0-.603 14.025 10.12 10.12 0 0 0 .604.604zM92.996 278.988a10.45 10.45 0 0 0-12.539 0l-25.6 25.6a9.93 9.93 0 0 0-.603 14.025 9.8 9.8 0 0 0 .603.603 9.93 9.93 0 0 0 14.025.603 9.8 9.8 0 0 0 .603-.603l25.6-25.6a10.45 10.45 0 0 0-2.089-14.628zm226.22 25.6l-25.6-25.6a10.45 10.45 0 0 0-14.629 14.629l25.6 25.6a9.93 9.93 0 0 0 14.025.603 9.8 9.8 0 0 0 .603-.603 9.93 9.93 0 0 0 .603-14.025l-.602-.604zM80.457 95.086a9.93 9.93 0 0 0 14.025.603 9.8 9.8 0 0 0 .603-.603 9.93 9.93 0 0 0 .603-14.025 9.8 9.8 0 0 0-.603-.603l-25.6-25.6a10.45 10.45 0 0 0-14.629 14.629l25.6 25.6zm106.58-38.14a10.45 10.45 0 0 0 10.449-10.449V10.45A10.45 10.45 0 0 0 187.037 0a10.45 10.45 0 0 0-10.449 10.449V46.5a10.45 10.45 0 0 0 10.449 10.449zm0 260.18a10.45 10.45 0 0 0-10.449 10.449v36.05a10.45 10.45 0 0 0 10.449 10.449 10.45 10.45 0 0 0 10.449-10.449v-36.05a10.45 10.45 0 0 0-10.449-10.449zm176.588-140.54h-36.05a10.45 10.45 0 0 0-10.449 10.449 10.45 10.45 0 0 0 10.449 10.449h36.05a10.45 10.45 0 0 0 10.449-10.449 10.45 10.45 0 0 0-10.449-10.449zm-306.678 10.45a10.45 10.45 0 0 0-10.449-10.449H10.45A10.45 10.45 0 0 0 0 187.037a10.45 10.45 0 0 0 10.449 10.449H46.5a10.45 10.45 0 0 0 10.449-10.449z"/></symbol><symbol id="icon-editor-saturate" viewBox="0 0 48 48"><path fill="none" d="M0 0h48v48H0V0z"/><path d="M33.12 17.88L15.24 0l-2.83 2.83 4.76 4.76L6.88 17.88a3 3 0 0 0 0 4.24l11 11c.58.59 1.35.88 2.12.88s1.54-.29 2.12-.88l11-11a3 3 0 0 0 0-4.24zM10.41 20L20 10.42 29.59 20H10.41zM38 23s-4 4.33-4 7c0 2.21 1.79 4 4 4s4-1.79 4-4c0-2.67-4-7-4-7zM0 40h48v3H0z"/></symbol><symbol id="icon-logo-facebook" viewBox="0 0 8.673 18.944"><path d="M6.275 3.357h2.398V0H5.795C2.656.181 1.54 2.387 1.948 6.115H0v3.517h1.958v9.312h3.837V9.632h2.857V6.115H5.786c-.021-1.045-.036-2.406.489-2.758z"/></symbol><symbol id="icon-logo-htmlacademy" viewBox="0 0 26.943 34.09"><path d="M13.62.017L13.472 0 0 1.412v24.661l13.472 8.017 13.43-7.99.042-.026V1.412L13.62.017zm11.399 12.11L13.495 5.334l-.001-.104-.087.05-.088-.056v.109L1.925 12.118V3.147l11.547-1.212 11.547 1.212v8.98zm-11.614-5.34L24.923 13.5l-4.479 2.64-7.093-4.221-.013 1.415 5.904 3.513-.86.507-5.031-2.992-.013 1.415 3.827 2.275-.782.523-3.032-1.787-.013 1.413 1.852 1.091-1.8 1.081-11.356-6.751 11.371-6.835zm-11.48 8.34l11.411 6.791.015 1.044-7.941-4.728-.015 1.416 7.979 4.796.017 1.076-7.972-4.741-.013 1.415 8.021 4.821.045.026 8.143-4.872v-1.268l-.011-.148v-3.761l3.415-2.036v10.02L13.472 31.85 1.925 24.979v-9.852z"/></symbol><symbol id="icon-logo-pink-blue-desktop" viewBox="0 0 146.3 40.375"><path d="M71.874 18.661c0-.708.58-1.288 1.256-1.288h7.18c5.087 0 8.436 2.704 8.436 7.146v.063c0 4.86-4.057 7.373-8.854 7.373h-5.475v6.825c0 .708-.58 1.287-1.289 1.287-.676 0-1.256-.58-1.256-1.287l.002-20.119zm8.114 10.98c3.734 0 6.182-1.996 6.182-4.959v-.062c0-3.221-2.414-4.894-6.053-4.894h-5.699v9.917h5.57v-.002zM93.603 18.5c0-.708.579-1.288 1.255-1.288.709 0 1.288.58 1.288 1.288v20.283a1.29 1.29 0 0 1-1.288 1.287c-.676 0-1.255-.579-1.255-1.287V18.5zm9.141.032c0-.676.58-1.256 1.256-1.256h.354c.58 0 .935.29 1.288.74l13.684 17.45V18.468c0-.676.547-1.256 1.256-1.256.676 0 1.225.58 1.225 1.256v20.349c0 .677-.48 1.19-1.158 1.19h-.129c-.548 0-.936-.321-1.318-.772l-13.976-17.867v17.449c0 .677-.547 1.257-1.257 1.257-.676 0-1.223-.58-1.223-1.257V18.532h-.002zm25.429-.032c0-.708.58-1.288 1.257-1.288.708 0 1.286.58 1.286 1.288v12.331l12.848-13.168c.29-.257.579-.451.998-.451.676 0 1.225.612 1.225 1.256 0 .354-.162.644-.42.901l-7.984 7.92 8.564 10.561c.225.291.354.547.354.936 0 .676-.577 1.288-1.285 1.288-.482 0-.807-.259-1.03-.58l-8.401-10.464-4.863 4.861v4.895a1.29 1.29 0 0 1-1.286 1.288c-.677 0-1.257-.58-1.257-1.288V18.5h-.006z"/><path fill="#D22856" d="M98.498 9.875a3.623 3.623 0 0 1-3.623-3.624 3.625 3.625 0 0 1-3.625 3.624 3.625 3.625 0 0 1 3.625 3.624 3.623 3.623 0 0 1 3.623-3.624z"/><g fill="#D22856"><path d="M43.094 19.313c.246 0 .489.014.73.033a2.491 2.491 0 0 0-2.136-1.221 1.994 1.994 0 0 1-1.884-1.354c-.727.208-1.425.482-2.089.816.062.017.122.038.188.038a2 2 0 0 1 2 2c0 .096-.015.188-.028.281 1-.382 2.084-.593 3.219-.593z"/><path d="M60.462 28.016L55.287 6.651C54.926 4.303 52.694 0 46.688 0a1.5 1.5 0 1 0 0 3c4.856 0 5.575 3.729 5.639 4.143l4.767 19.701h-2.073c-.445-3.557-2.453-6.628-5.305-8.522a2.503 2.503 0 0 0-1.529 2.303c0 .088-.015.171-.026.256a9.034 9.034 0 0 1 3.829 5.965c.082.488.135.987.135 1.5 0 .512-.053 1.012-.135 1.5-.716 4.271-4.421 7.53-8.896 7.53-4.475 0-8.181-3.259-8.896-7.53a9.035 9.035 0 0 1-.135-1.5c0-.513.053-1.012.135-1.5a8.945 8.945 0 0 1 .808-2.484 1.994 1.994 0 0 1-1.852-1.984.739.739 0 0 0-.192-.488 11.95 11.95 0 0 0-1.795 4.957h-1.82c-.741-5.927-5.802-10.531-11.927-10.531S6.235 20.917 5.493 26.844H3.42L8.187 7.143C8.25 6.729 8.97 3 13.826 3a1.5 1.5 0 1 0 0-3C7.82 0 5.588 4.303 5.227 6.651L.052 28.016c-.266 1.109.531 1.826 1.426 1.826.012 0 .023.004.036.004h3.982c.079.629.215 1.237.387 1.831a.726.726 0 0 0 .102-.354 2 2 0 0 1 2-2c.166 0 .324.024.478.062a8.337 8.337 0 0 1-.074-1.042c0-.512.053-1.011.135-1.5.715-4.271 4.421-7.531 8.896-7.531s8.18 3.26 8.896 7.531c.082.489.135.988.135 1.5s-.053 1.012-.135 1.5c-.715 4.272-4.421 7.531-8.896 7.531a8.959 8.959 0 0 1-5.386-1.794c-.35.302-.8.491-1.299.491a.75.75 0 0 0-.749.748c0 .289-.065.563-.176.812a11.94 11.94 0 0 0 7.614 2.743c6.125 0 11.185-4.604 11.927-10.529h1.814c.742 5.926 5.802 10.529 11.927 10.529s11.186-4.604 11.927-10.529H59c.012 0 .023-.005.036-.005.895.002 1.692-.715 1.426-1.824z"/></g><path d="M50.686 16.125a4.499 4.499 0 0 1-4.499-4.499 4.499 4.499 0 0 1-4.499 4.499 4.499 4.499 0 0 1 4.499 4.499 4.498 4.498 0 0 1 4.499-4.499zm-12.782 3.501a2.748 2.748 0 0 1-2.749-2.749 2.748 2.748 0 0 1-2.749 2.749 2.747 2.747 0 0 1 2.749 2.749 2.748 2.748 0 0 1 2.749-2.749zm-27.17 14.446a2.748 2.748 0 0 1-2.749-2.75c0 1.52-1.23 2.75-2.749 2.75a2.747 2.747 0 0 1 2.749 2.748 2.748 2.748 0 0 1 2.749-2.748z"/></symbol><symbol id="icon-logo-pink-blue-mobile" viewBox="0 0 146.3 40.375"><path d="M71.874 18.661c0-.708.58-1.288 1.256-1.288h7.18c5.087 0 8.436 2.704 8.436 7.146v.063c0 4.86-4.057 7.373-8.854 7.373h-5.475v6.825c0 .708-.58 1.287-1.289 1.287-.676 0-1.256-.58-1.256-1.287l.002-20.119zm8.114 10.98c3.734 0 6.182-1.996 6.182-4.959v-.062c0-3.221-2.414-4.894-6.053-4.894h-5.699v9.917h5.57v-.002zM93.603 18.5c0-.708.579-1.288 1.255-1.288.709 0 1.288.58 1.288 1.288v20.283a1.29 1.29 0 0 1-1.288 1.287c-.676 0-1.255-.579-1.255-1.287V18.5zm9.141.032c0-.676.58-1.256 1.256-1.256h.354c.58 0 .935.29 1.288.74l13.684 17.45V18.468c0-.676.547-1.256 1.256-1.256.676 0 1.225.58 1.225 1.256v20.349c0 .677-.48 1.19-1.158 1.19h-.129c-.548 0-.936-.321-1.318-.772l-13.976-17.867v17.449c0 .677-.547 1.257-1.257 1.257-.676 0-1.223-.58-1.223-1.257V18.532h-.002zm25.429-.032c0-.708.58-1.288 1.257-1.288.708 0 1.286.58 1.286 1.288v12.331l12.848-13.16c.29-.257.579-.451.998-.451.676 0 1.225.612 1.225 1.256 0 .354-.162.644-.42.901l-7.984 7.92 8.564 10.561c.225.291.354.547.354.936 0 .676-.577 1.288-1.285 1.288-.482 0-.807-.259-1.03-.58l-8.401-10.464-4.863 4.861v4.895a1.29 1.29 0 0 1-1.286 1.288c-.677 0-1.257-.58-1.257-1.288V18.5h-.006z"/><path fill="#D22856" d="M60.462 28.016L55.287 6.651C54.926 4.303 52.694 0 46.688 0a1.5 1.5 0 1 0 0 3c4.856 0 5.575 3.729 5.639 4.143l4.767 19.701h-2.073c-.742-5.927-5.802-10.531-11.927-10.531s-11.186 4.604-11.927 10.531h-1.82c-.741-5.927-5.802-10.531-11.927-10.531S6.235 20.917 5.493 26.844H3.42L8.187 7.143C8.25 6.729 8.97 3 13.826 3a1.5 1.5 0 1 0 0-3C7.82 0 5.588 4.303 5.227 6.651L.052 28.016c-.266 1.109.531 1.826 1.426 1.826.012 0 .023.004.036.004h3.982c.741 5.926 5.802 10.53 11.927 10.53s11.185-4.604 11.927-10.53h1.814c.742 5.926 5.802 10.53 11.927 10.53s11.186-4.604 11.927-10.53H59c.012 0 .023-.004.036-.004.895 0 1.692-.717 1.426-1.826zm-34.147 1.828c-.715 4.272-4.421 7.531-8.896 7.531s-8.18-3.259-8.896-7.531c-.082-.488-.135-.988-.135-1.5s.053-1.011.135-1.5c.715-4.271 4.421-7.531 8.896-7.531s8.18 3.26 8.896 7.531c.082.489.135.988.135 1.5s-.053 1.011-.135 1.5zm25.675 0c-.716 4.272-4.421 7.531-8.896 7.531-4.475 0-8.181-3.259-8.896-7.531-.082-.488-.135-.988-.135-1.5s.053-1.011.135-1.5c.716-4.271 4.421-7.531 8.896-7.531 4.475 0 8.181 3.26 8.896 7.531.082.489.135.988.135 1.5s-.053 1.011-.135 1.5z"/></symbol><symbol id="icon-logo-pink-white-desktop" viewBox="0 0 146.3 40.375"><path d="M71.874 18.661c0-.708.58-1.288 1.256-1.288h7.18c5.087 0 8.436 2.704 8.436 7.146v.064c0 4.861-4.057 7.373-8.854 7.373h-5.475v6.825c0 .708-.58 1.288-1.288 1.288-.676 0-1.256-.58-1.256-1.288v-20.12zm8.114 10.98c3.734 0 6.182-1.996 6.182-4.959v-.063c0-3.22-2.414-4.894-6.053-4.894h-5.699v9.917h5.57v-.001zM93.603 18.5c0-.708.579-1.288 1.255-1.288.709 0 1.288.58 1.288 1.288v20.283a1.29 1.29 0 0 1-1.288 1.287c-.676 0-1.255-.579-1.255-1.287V18.5zm9.141.032c0-.676.58-1.256 1.256-1.256h.354c.58 0 .935.29 1.288.74l13.684 17.45V18.468c0-.676.547-1.256 1.256-1.256.676 0 1.224.58 1.224 1.256v20.349c0 .676-.481 1.19-1.158 1.19h-.129c-.548 0-.935-.321-1.319-.772l-13.975-17.868v17.45c0 .676-.547 1.256-1.256 1.256-.676 0-1.223-.58-1.223-1.256V18.532h-.002zm25.429-.032c0-.708.58-1.288 1.257-1.288.708 0 1.286.58 1.286 1.288v12.331l12.848-13.168c.29-.257.579-.451.998-.451.676 0 1.225.612 1.225 1.256 0 .354-.162.644-.42.901l-7.984 7.92 8.564 10.561c.225.291.354.547.354.935 0 .676-.578 1.288-1.286 1.288-.483 0-.806-.258-1.03-.58l-8.402-10.463-4.863 4.861v4.894a1.29 1.29 0 0 1-1.286 1.288c-.677 0-1.257-.58-1.257-1.288V18.5h-.004z"/><path fill="#D22856" d="M98.498 9.875a3.623 3.623 0 0 1-3.623-3.624 3.625 3.625 0 0 1-3.625 3.624 3.625 3.625 0 0 1 3.625 3.624 3.623 3.623 0 0 1 3.623-3.624z"/><path d="M43.094 19.313c.246 0 .489.014.73.033a2.491 2.491 0 0 0-2.136-1.221 1.994 1.994 0 0 1-1.884-1.354c-.727.208-1.425.482-2.089.816.062.017.122.038.188.038a2 2 0 0 1 2 2c0 .096-.015.188-.028.281 1-.382 2.084-.593 3.219-.593z"/><path d="M60.462 28.016L55.287 6.651C54.926 4.303 52.694 0 46.688 0a1.5 1.5 0 1 0 0 3c4.856 0 5.575 3.729 5.639 4.143l4.767 19.701h-2.073c-.445-3.557-2.453-6.628-5.305-8.522a2.503 2.503 0 0 0-1.529 2.303c0 .088-.015.171-.026.256a9.034 9.034 0 0 1 3.829 5.964c.082.489.135.988.135 1.5s-.053 1.012-.135 1.5c-.716 4.272-4.421 7.531-8.896 7.531-4.475 0-8.181-3.259-8.896-7.531-.082-.488-.135-.988-.135-1.5s.053-1.011.135-1.5a8.949 8.949 0 0 1 .808-2.483 1.995 1.995 0 0 1-1.852-1.985.743.743 0 0 0-.192-.489 11.954 11.954 0 0 0-1.795 4.958h-1.82c-.741-5.927-5.802-10.531-11.927-10.531S6.235 20.917 5.493 26.844H3.42L8.187 7.143C8.25 6.729 8.97 3 13.826 3a1.5 1.5 0 1 0 0-3C7.82 0 5.588 4.303 5.227 6.651L.052 28.016c-.266 1.109.531 1.826 1.426 1.826.012 0 .023.004.036.004h3.982c.079.628.215 1.237.387 1.831a.726.726 0 0 0 .102-.354 2 2 0 0 1 2-2c.166 0 .324.025.478.063a8.337 8.337 0 0 1-.074-1.042c0-.512.053-1.011.135-1.5.715-4.271 4.421-7.531 8.896-7.531s8.18 3.26 8.896 7.531c.082.489.135.988.135 1.5s-.053 1.012-.135 1.5c-.715 4.272-4.421 7.531-8.896 7.531a8.959 8.959 0 0 1-5.386-1.794c-.35.302-.8.491-1.299.491a.75.75 0 0 0-.749.748c0 .29-.065.564-.176.812a11.94 11.94 0 0 0 7.614 2.743c6.125 0 11.185-4.604 11.927-10.53h1.814c.742 5.926 5.802 10.53 11.927 10.53s11.186-4.604 11.927-10.53H59c.012 0 .023-.004.036-.004.895.001 1.692-.716 1.426-1.825z"/><path fill="#D22856" d="M50.686 16.125a4.499 4.499 0 0 1-4.499-4.499 4.499 4.499 0 0 1-4.499 4.499 4.499 4.499 0 0 1 4.499 4.499 4.498 4.498 0 0 1 4.499-4.499zm-12.782 3.501a2.748 2.748 0 0 1-2.749-2.749 2.748 2.748 0 0 1-2.749 2.749 2.747 2.747 0 0 1 2.749 2.749 2.748 2.748 0 0 1 2.749-2.749zm-27.17 14.446a2.748 2.748 0 0 1-2.749-2.75c0 1.52-1.23 2.75-2.749 2.75a2.747 2.747 0 0 1 2.749 2.748 2.748 2.748 0 0 1 2.749-2.748z"/></symbol><symbol id="icon-logo-pink-white-mobile" viewBox="0 0 74.426 22.859"><path d="M0 1.449C0 .741.58.161 1.256.161h7.18c5.087 0 8.436 2.704 8.436 7.147v.064c0 4.861-4.057 7.373-8.854 7.373H2.544v6.825c0 .708-.58 1.288-1.288 1.288C.58 22.859 0 22.279 0 21.571V1.449zm8.114 10.979c3.734 0 6.182-1.996 6.182-4.958v-.065c0-3.22-2.415-4.894-6.054-4.894H2.544v9.917h5.57zm13.615-11.14C21.729.58 22.308 0 22.983 0c.709 0 1.288.58 1.288 1.288v20.283c0 .708-.579 1.288-1.288 1.288-.676 0-1.255-.58-1.255-1.288V1.288zm9.141.032c0-.676.579-1.256 1.256-1.256h.354c.58 0 .934.29 1.288.74l13.684 17.45V1.256A1.256 1.256 0 0 1 48.707 0c.676 0 1.223.58 1.223 1.256v20.348c0 .676-.482 1.191-1.158 1.191h-.129c-.548 0-.934-.322-1.32-.772L33.349 4.153v17.45c0 .676-.547 1.256-1.255 1.256-.677 0-1.224-.58-1.224-1.256V1.32zm25.43-.032C56.3.58 56.879 0 57.556 0c.708 0 1.287.58 1.287 1.288v12.331L71.689.451c.29-.258.58-.451.999-.451.676 0 1.224.612 1.224 1.256 0 .354-.161.644-.419.901l-7.984 7.92 8.564 10.561c.225.29.354.547.354.934 0 .676-.579 1.288-1.287 1.288-.483 0-.806-.258-1.03-.58l-8.403-10.463-4.862 4.861v4.894c0 .708-.579 1.288-1.287 1.288-.677 0-1.256-.58-1.256-1.288V1.288z"/></symbol><symbol id="icon-logo-pink-white-tablet" viewBox="0 0 146.3 40.375"><path d="M71.874 18.661c0-.708.58-1.288 1.256-1.288h7.18c5.087 0 8.436 2.704 8.436 7.146v.064c0 4.861-4.057 7.373-8.854 7.373h-5.475v6.825c0 .708-.58 1.288-1.288 1.288-.676 0-1.256-.58-1.256-1.288v-20.12zm8.114 10.98c3.734 0 6.182-1.996 6.182-4.959v-.063c0-3.22-2.414-4.894-6.053-4.894h-5.699v9.917h5.57v-.001zM93.603 18.5c0-.708.579-1.288 1.255-1.288.709 0 1.288.58 1.288 1.288v20.283a1.29 1.29 0 0 1-1.288 1.287c-.676 0-1.255-.579-1.255-1.287V18.5zm9.141.032c0-.676.58-1.256 1.256-1.256h.354c.58 0 .935.29 1.288.74l13.684 17.45V18.468c0-.676.547-1.256 1.256-1.256.676 0 1.224.58 1.224 1.256v20.349c0 .676-.481 1.19-1.158 1.19h-.129c-.548 0-.935-.321-1.319-.772l-13.975-17.868v17.45c0 .676-.547 1.256-1.256 1.256-.676 0-1.223-.58-1.223-1.256V18.532h-.002zm25.429-.032c0-.708.58-1.288 1.257-1.288.708 0 1.286.58 1.286 1.288v12.331l12.848-13.168c.29-.257.579-.451.998-.451.676 0 1.225.612 1.225 1.256 0 .354-.162.644-.42.901l-7.984 7.92 8.564 10.561c.225.291.354.547.354.935 0 .676-.578 1.288-1.286 1.288-.483 0-.806-.258-1.03-.58l-8.402-10.463-4.863 4.861v4.894a1.29 1.29 0 0 1-1.286 1.288c-.677 0-1.257-.58-1.257-1.288V18.5h-.004zm-67.711 9.516L55.287 6.651C54.926 4.303 52.694 0 46.688 0a1.5 1.5 0 1 0 0 3c4.856 0 5.575 3.729 5.639 4.143l4.767 19.701h-2.073c-.742-5.927-5.802-10.531-11.927-10.531s-11.186 4.604-11.927 10.531h-1.82c-.741-5.927-5.802-10.531-11.927-10.531S6.235 20.917 5.493 26.844H3.42L8.187 7.143C8.25 6.729 8.97 3 13.826 3a1.5 1.5 0 1 0 0-3C7.82 0 5.588 4.303 5.227 6.651L.052 28.016c-.266 1.109.531 1.826 1.426 1.826.012 0 .023.004.036.004h3.982c.741 5.926 5.802 10.53 11.927 10.53s11.185-4.604 11.927-10.53h1.814c.742 5.926 5.802 10.53 11.927 10.53s11.186-4.604 11.927-10.53H59c.012 0 .023-.004.036-.004.895 0 1.692-.717 1.426-1.826zm-34.147 1.828c-.715 4.272-4.421 7.531-8.896 7.531-4.475 0-8.18-3.259-8.896-7.531-.082-.488-.135-.988-.135-1.5s.053-1.011.135-1.5c.715-4.271 4.421-7.531 8.896-7.531 4.475 0 8.18 3.26 8.896 7.531.082.489.135.988.135 1.5s-.053 1.011-.135 1.5zm25.675 0c-.716 4.272-4.421 7.531-8.896 7.531-4.475 0-8.181-3.259-8.896-7.531-.082-.488-.135-.988-.135-1.5s.053-1.011.135-1.5c.716-4.271 4.421-7.531 8.896-7.531 4.475 0 8.181 3.26 8.896 7.531.082.489.135.988.135 1.5s-.053 1.011-.135 1.5z"/></symbol><symbol id="icon-logo-twitter" viewBox="0 0 17.5 14.663"><path fill-rule="evenodd" clip-rule="evenodd" d="M11.283.153c1.736-.485 3.074.263 3.685 1.151.694-.226 1.372-.47 2.072-.691-.004.841-.538 1.478-.883 1.727.704.166 1.343-.48 1.343-.48-.175.976-1.035 1.746-1.611 1.977-.239 6.592-3.272 10.956-10.382 10.823h-.46c-.422 0-4.29-.45-5.047-1.843 2.341.192 4.011-.412 4.835-1.15-.989-.293-2.761-.464-3.07-2.881.362.105.583.223 1.228.117C1.757 8.067.385 7.366.461 5.218c.294.32 1.1.523 1.381.461C1.117 5.444-.188 2.398.921.843 2.794 2.654 4.769 4.364 8.29 4.528 8.506 2.288 9.461.787 11.283.153z"/></symbol><symbol id="icon-logo-youtube" viewBox="0 0 14.64 13.96"><path d="M1.775 13.78C.799 14.257 0 13.758 0 12.671V1.29C0 .202.799-.295 1.775.181l12.133 5.932c.975.478.975 1.258 0 1.736L1.775 13.78z"/></symbol><symbol id="icon-menu-burger" viewBox="0 0 49.945 24.007"><path d="M1.137 0C.51 0 0 .428 0 1.01v1.981c0 .558.494 1.01 1.139 1.01H48.81c.628 0 1.138-.428 1.138-1.01V1.01c0-.558-.494-1.01-1.138-1.01H1.137zm0 10.003c-.627 0-1.137.428-1.137 1.01v1.98c0 .557.494 1.01 1.139 1.01H48.81c.628 0 1.138-.428 1.138-1.01v-1.98c0-.558-.494-1.01-1.138-1.01H1.137zm0 10.002C.51 20.005 0 20.434 0 21.016v1.981c0 .557.494 1.01 1.139 1.01H48.81c.628 0 1.138-.428 1.138-1.01v-1.981c0-.558-.494-1.011-1.138-1.011H1.137z"/><path d="M1.137 0C.51 0 0 .428 0 1.01v1.981c0 .558.494 1.01 1.139 1.01H48.81c.628 0 1.138-.428 1.138-1.01V1.01c0-.558-.494-1.01-1.138-1.01H1.137zm0 10.003c-.627 0-1.137.428-1.137 1.01v1.98c0 .557.494 1.01 1.139 1.01H48.81c.628 0 1.138-.428 1.138-1.01v-1.98c0-.558-.494-1.01-1.138-1.01H1.137zm0 10.002C.51 20.005 0 20.434 0 21.016v1.981c0 .557.494 1.01 1.139 1.01H48.81c.628 0 1.138-.428 1.138-1.01v-1.981c0-.558-.494-1.011-1.138-1.011H1.137z"/></symbol><symbol id="icon-menu-cross" viewBox="0 0 23.867 23.867"><path d="M15.087 11.933l8.56-8.559a.75.75 0 0 0 0-1.061L21.554.22a.747.747 0 0 0-1.06 0l-8.561 8.56L3.373.22a.771.771 0 0 0-1.061 0L.22 2.313a.75.75 0 0 0 0 1.061l8.56 8.559-8.56 8.559a.751.751 0 0 0 0 1.062l2.093 2.094a.744.744 0 0 0 1.06 0l8.561-8.56 8.56 8.56a.746.746 0 0 0 1.06 0l2.093-2.094a.751.751 0 0 0 0-1.062l-8.56-8.559z"/></symbol><symbol id="icon-upload" viewBox="0 0 419.2 419.2"><g fill="#d22856">
	<circle cx="158" cy="144.4" r="28.8"/>
	<path d="m394.4 250.4c-13.6-12.8-30.8-21.2-49.6-23.6v-146.4c0-15.6-6.4-29.6-16.4-40-10.4-10.4-24.4-16.4-40-16.4h-232c-15.6 0-29.6 6.4-40 16.4-10.4 10.4-16.4 24.4-16.4 40v238.8c0 15.6 6.4 29.6 16.4 40 10.4 10.4 24.4 16.4 40 16.4h224.4c14.8 12 33.2 19.6 53.6 19.6 23.6 0 44.8-9.6 60-24.8s24.8-36.4 24.8-60-9.6-44.8-24.8-60zm-373.2-170c0-9.6 4-18.4 10.4-24.4 6.4-6.4 15.2-10.4 24.8-10.4h232c9.6 0 18.4 4 24.8 10.4s10.4 15.2 10.4 24.8v124.8l-59.2-59.2c-4-4-10.8-4.4-15.2 0l-89.2 89.6-60.4-60.8c-4-4-10.8-4.4-15.2 0l-63.2 64v-158.8zm34.8 274.8v-0.8c-9.6 0-18.4-4-24.8-10.4-6-6.4-10-15.2-10-24.8v-49.6l70.8-71.2 60.4 60.4c4 4 10.8 4 15.2 0l89.2-89.6 58.4 58.8c-1.2 0.4-2.4 0.8-3.6 1.2-1.6 0.4-3.2 0.8-5.2 1.6-1.6 0.4-3.2 1.2-4.8 1.6-1.2 0.4-2 0.8-3.2 1.6-1.6 0.8-2.8 1.2-4 2l-6 3.6c-1.2 0.8-2 1.2-3.2 2-0.8 0.4-1.2 0.8-2 1.2-3.6 2.4-6.8 5.2-9.6 8.4-15.2 15.2-24.8 36.4-24.8 60 0 6 0.8 11.6 2 17.6 0.4 1.6 0.8 2.8 1.2 4.4 1.2 4 2.4 8 4 12v0.4c1.6 3.2 3.2 6.8 5.2 9.6h-205.2zm322.8 0c-11.6 11.6-27.2 18.4-44.8 18.4-16.8 0-32.4-6.8-43.6-17.6-1.6-1.6-3.2-3.6-4.8-5.2-1.2-1.2-2.4-2.8-3.6-4-1.6-2-2.8-4.4-4-6.8-0.8-1.6-1.6-2.8-2.4-4.4-0.8-2-1.6-4.4-2-6.8-0.4-1.6-1.2-3.6-1.6-5.2-0.8-4-1.2-8.4-1.2-12.8 0-17.6 7.2-33.2 18.4-44.8s27.2-18.4 44.8-18.4 33.2 7.2 44.8 18.4c11.6 11.6 18.4 27.2 18.4 44.8 0 17.2-7.2 32.8-18.4 44.4z"/>
	<path d="m341.6 267.6c-0.8-0.8-2-1.6-3.6-2.4-1.2-0.4-2.4-0.8-3.6-0.8h-0.4-0.4c-1.2 0-2.4 0.4-3.6 0.8s-2.4 1.2-3.6 2.4l-24.8 24.8c-4 4-4 10.8 0 15.2 4 4 10.8 4 15.2 0l6.4-6.4v44c0 6 4.8 10.8 10.8 10.8s10.8-4.8 10.8-10.8v-44l6.4 6.4c4 4 10.8 4 15.2 0 4-4 4-10.8 0-15.2l-24.8-24.8z"/>
</g></symbol><symbol id="icon-error" viewBox="0 0 35 35"><g fill="#d22856"><path d="M25.302,0H9.698c-1.3,0-2.363,1.063-2.363,2.364v30.271C7.335,33.936,8.398,35,9.698,35h15.604   c1.303,0,2.363-1.062,2.363-2.364V2.364C27.665,1.063,26.604,0,25.302,0z M15.004,1.704h4.992c0.157,0,0.286,0.128,0.286,0.287   c0,0.158-0.129,0.286-0.286,0.286h-4.992c-0.158,0-0.286-0.128-0.286-0.286C14.718,1.832,14.846,1.704,15.004,1.704z M17.5,33.818   c-0.652,0-1.184-0.529-1.184-1.183s0.529-1.182,1.184-1.182c0.655,0,1.185,0.528,1.185,1.182S18.152,33.818,17.5,33.818z    M26.022,30.625H8.981V3.749h17.042V30.625z M17.5,19.195c2.265,0,4.392,0.882,5.989,2.481c0.23,0.232,0.23,0.607,0,0.839   c-0.23,0.232-0.606,0.232-0.84,0c-1.375-1.375-3.205-2.134-5.149-2.134c-1.945,0-3.773,0.759-5.15,2.134   c-0.231,0.232-0.607,0.232-0.84,0c-0.23-0.23-0.23-0.606,0-0.839C13.109,20.077,15.236,19.195,17.5,19.195z M16.164,13.012   c0,0.794-0.645,1.438-1.438,1.438c-0.795,0-1.439-0.644-1.439-1.438c0-0.795,0.645-1.438,1.439-1.438   C15.52,11.573,16.164,12.217,16.164,13.012z M21.713,13.012c0,0.794-0.646,1.438-1.438,1.438c-0.795,0-1.438-0.644-1.438-1.438   c0-0.795,0.646-1.438,1.438-1.438C21.067,11.573,21.713,12.217,21.713,13.012z"/></g></symbol><symbol id="icon-login" viewBox="0 0 512 512"><g><path d="M375.36 76.813C372.52 73.145 368.14 71 363.504 71H185.05c-8.285 0-15 6.715-15 15s6.715 15 15 15h170.937c61.754 85.813 61.754 224.188 0 310H185.05c-8.285 0-15 6.715-15 15s6.715 15 15 15h178.453c4.637 0 9.016-2.145 11.855-5.812C411.887 388.05 432 324.414 432 256s-20.113-132.05-56.64-179.187zM226.762 301.125a15 15 0 0 0 0 21.215c2.93 2.93 6.77 4.395 10.605 4.395a14.94 14.94 0 0 0 10.605-4.395l55.734-55.734c5.77-5.766 5.77-15.445 0-21.2l-55.734-55.734c-5.855-5.855-15.355-5.855-21.2 0s-5.86 15.355 0 21.215L256.887 241H77c-8.285 0-15 6.715-15 15s6.715 15 15 15h179.887zm0 0"/></g></symbol><symbol id="icon-logout" viewBox="0 0 512 512"><g><path d="M347.086 352.516c-8.285 0-15 6.72-15 15v37.324c0 3.395-2.94 6.16-6.56 6.16H153.1c-3.613 0-6.555-2.766-6.555-6.16V107.16c0-3.395 2.94-6.16 6.555-6.16h172.438c3.617 0 6.56 2.766 6.56 6.16v37.324c0 8.28 6.715 15 15 15s15-6.72 15-15V107.16c0-19.937-16.398-36.16-36.56-36.16H153.1c-20.156 0-36.555 16.223-36.555 36.16v297.68c0 19.938 16.398 36.16 36.555 36.16h172.438c20.156 0 36.56-16.223 36.56-36.16v-37.324c0-8.285-6.72-15-15-15zm76.527-86.504l.387-.422.88-1.164c1.363-2.012 2.258-4.367 2.512-6.914l.078-1.512a14.95 14.95 0 0 0-.078-1.512 14.94 14.94 0 0 0-2.512-6.914l-.2-.262-.68-.902-.383-.422-.613-.66c-.023-.02-.04-.047-.062-.066l-76.676-74.773a15 15 0 1 0-20.945 21.48L375.6 241H239.3c-8.28 0-15 6.715-15 15s6.72 15 15 15h136.293l-50.28 49.03c-5.93 5.785-6.05 15.28-.266 21.2a14.94 14.94 0 0 0 10.738 4.527 14.96 14.96 0 0 0 10.473-4.258l76.676-74.773c.023-.02.04-.047.063-.07.215-.207.4-.434.6-.656zm0 0"/></g></symbol><symbol id="icon-github" viewBox="0 0 438.549 438.549"><path d="M409.132 114.573c-19.608-33.596-46.205-60.194-79.798-79.8S259.057 5.365 219.27 5.365c-39.78 0-76.472 9.804-110.063 29.408s-60.192 46.204-79.8 79.8S0 184.854 0 224.63c0 47.78 13.94 90.745 41.827 128.906s63.906 64.572 108.063 79.227c5.14.954 8.945.283 11.42-1.996s3.71-5.14 3.71-8.562l-.144-15.417-.144-25.406-6.567 1.136c-4.187.767-9.47 1.092-15.846 1s-12.99-.757-19.842-2c-6.854-1.23-13.23-4.086-19.13-8.56s-10.085-10.328-12.56-17.556l-2.855-6.57c-1.903-4.374-4.9-9.233-8.992-14.56s-8.232-8.945-12.42-10.848l-2-1.43c-1.332-.95-2.568-2.098-3.71-3.43s-1.997-2.663-2.568-3.997-.098-2.43 1.427-3.29 4.28-1.276 8.28-1.276l5.708.853c3.807.763 8.516 3.042 14.133 6.85s10.23 8.754 13.846 14.842c4.38 7.806 9.657 13.754 15.846 17.847 6.184 4.093 12.42 6.136 18.7 6.136s11.704-.476 16.274-1.423 8.848-2.383 12.847-4.285c1.713-12.758 6.377-22.56 13.988-29.4-10.848-1.14-20.6-2.857-29.264-5.14-8.658-2.286-17.605-5.996-26.835-11.14C113.957 300 106.296 293.62 100.207 286S89.12 268.4 85.22 256.03c-3.9-12.374-5.852-26.648-5.852-42.826 0-23.035 7.52-42.637 22.557-58.817-7.044-17.318-6.38-36.732 1.997-58.24 5.52-1.715 13.706-.428 24.554 3.853s18.794 7.952 23.84 10.994 9.09 5.618 12.135 7.708c17.705-4.947 35.976-7.42 54.818-7.42s37.117 2.474 54.823 7.42l10.85-6.85c7.42-4.57 16.18-8.758 26.262-12.565 10.088-3.805 17.802-4.853 23.134-3.138 8.562 21.51 9.325 40.922 2.28 58.24 15.036 16.18 22.56 35.787 22.56 58.817 0 16.178-1.958 30.497-5.853 42.966s-8.94 22.457-15.125 29.98c-6.19 7.52-13.9 13.85-23.13 18.986s-18.182 8.85-26.84 11.136-18.415 4.004-29.263 5.146c9.894 8.562 14.842 22.077 14.842 40.54v60.237c0 3.422 1.2 6.28 3.572 8.562s6.136 2.95 11.276 1.995c44.163-14.653 80.185-41.062 108.068-79.226s41.825-81.126 41.825-128.906c-.01-39.77-9.818-76.454-29.414-110.05z"/></symbol><symbol id="icon-google" viewBox="0 0 512 512"><path d="M113.47 309.408L95.648 375.94l-65.14 1.378C11.042 341.21 0 299.9 0 256c0-42.45 10.324-82.483 28.624-117.732h.014L86.63 148.9l25.404 57.644c-5.317 15.5-8.215 32.14-8.215 49.456.002 18.792 3.406 36.797 9.65 53.408z" fill="#FBBB00"/><path d="M507.527 208.176C510.467 223.662 512 239.655 512 256c0 18.328-1.927 36.206-5.598 53.45-12.462 58.683-45.025 109.925-90.134 146.187l-.014-.014-73.044-3.727-10.338-64.535c29.932-17.554 53.324-45.025 65.646-77.91h-136.9V208.176h245.9z" fill="#518EF8"/><path d="M416.253 455.624l.014.014C372.396 490.9 316.666 512 256 512c-97.49 0-182.252-54.49-225.49-134.68l82.96-67.9c21.62 57.698 77.278 98.77 142.53 98.77 28.047 0 54.323-7.582 76.87-20.818l83.383 68.262z" fill="#28B446"/><path d="M419.404 58.936l-82.933 67.896c-23.335-14.586-50.92-23.012-80.47-23.012-66.73 0-123.43 42.957-143.965 102.724l-83.41-68.276C71.23 56.123 157.06 0 256 0c62.115 0 119.068 22.126 163.404 58.936z" fill="#F14336"/></symbol></svg>
